<svg xmlns="http://www.w3.org/2000/svg" width="512" height="512" viewBox="0 0 512 512" role="img" aria-labelledby="title desc">
  <title id="title">Creaciones Colibrí mask icon</title>
  <desc id="desc">Monochrome hummingbird silhouette used for Safari pinned tabs</desc>
  <g transform="translate(120 140) scale(1.1)" fill="#000000">
    <path d="M154 48c-22.4 0-40.5 15.9-40.5 35.5 0 18.3 14 33.6 31.9 35.2-4.7 19-20.3 36.5-49.6 50.7-38.4 18.6-56.3 46-60.7 77.7 25.3-24.2 55-40.4 86.5-48.9 35.3-9.5 63.2-8.4 80.4 12.4-5.6-35 11.7-60.3 39.7-82.7-26.5-5.5-41.6-21.4-51.2-38.5 17-7.1 29-19.9 35.6-36.5-15.6 9.3-33.4 14.6-51.9 14.6z" />
    <path d="M94.6 53.2c-23.4-14.2-56.5-10.5-72.8 7.3 18.3-3.1 34 0.6 46.4 10.8-22.4 0-44.1 13.6-53.2 33.3 12.8-10.4 28.3-14.8 44.1-13.5-25.8 13.9-42 40.8-44.1 70.9 12.5-27.4 34.6-45.7 63.8-55 27.3-8.8 40.7-32.1 36-53.8z" />
    <circle cx="212" cy="36" r="18" />
  </g>
</svg>
