<svg xmlns="http://www.w3.org/2000/svg" width="512" height="512" viewBox="0 0 512 512">
  <defs>
    <radialGradient id="maskableGradient" cx="36%" cy="28%" r="72%">
      <stop offset="0%" stop-color="#f7ba2a" />
      <stop offset="45%" stop-color="#f16745" />
      <stop offset="100%" stop-color="#1f8a70" />
    </radialGradient>
  </defs>
  <rect x="0" y="0" width="512" height="512" rx="128" fill="url(#maskableGradient)" />
  <path d="M363 170c-18.3 15.6-39.7 25.2-62.8 27.6 19.4 15.8 35 36.9 41.7 61.4-22.6-19.5-51-30.5-81.2-30.5-54.4 0-100 34.6-116.7 83 7.3-56.8 33.3-104.8 84.8-124.2-14.5-16.2-37.5-26.7-66.8-26.7 20.7-17.3 49.8-22.5 76.1-13.6 9-28.2 33.4-48 62.3-48 14.3 0 27.5 4.4 38.8 12.1 9.4 6.4 17.1 15.1 22.2 25.4 5 10.2 7.6 21.6 7.6 33.5z" fill="#ffffff" fill-opacity="0.92" />
  <circle cx="338" cy="162" r="16" fill="#2f2b28" fill-opacity="0.85" />
</svg>
