<svg xmlns="http://www.w3.org/2000/svg" viewBox="0 0 960 960" role="img" aria-labelledby="title desc">
  <title id="title">Picante del Gringo – Ahumado Dulce label illustration</title>
  <desc id="desc">Golden square label with hummingbird, smoked plantain illustration, and bilingual text for Picante del Gringo hot sauce.</desc>
  <defs>
    <linearGradient id="bgGradient" x1="0%" y1="0%" x2="0%" y2="100%">
      <stop offset="0%" stop-color="#f7c948" />
      <stop offset="100%" stop-color="#e2a221" />
    </linearGradient>
    <filter id="shadow" x="-10%" y="-10%" width="120%" height="120%">
      <feDropShadow dx="0" dy="8" stdDeviation="12" flood-color="#a4641b" flood-opacity="0.25" />
    </filter>
  </defs>
  <rect width="960" height="960" rx="120" fill="url(#bgGradient)" />
  <g filter="url(#shadow)">
    <ellipse cx="480" cy="630" rx="260" ry="110" fill="#3b2a1d" opacity="0.75" />
    <path d="M316 560c36-108 124-184 220-184 74 0 150 52 146 140-4 86-96 132-178 136-78 4-152-34-188-92z" fill="#412b20" />
    <path d="M318 540c38-110 130-188 232-188 72 0 145 50 142 134-4 82-92 126-170 130-82 4-160-36-204-76z" fill="#5b3b27" />
    <path d="M332 520c42-110 134-178 216-178 64 0 128 44 124 118-4 72-84 116-154 120-76 4-146-32-186-60z" fill="#70492d" />
    <path d="M352 500c46-100 124-158 190-158 54 0 110 40 108 100-2 60-70 102-128 106-64 4-130-28-170-48z" fill="#8d5c38" />
    <path d="M372 486c54-92 118-140 164-140 42 0 90 32 90 82 0 50-54 90-100 92-52 2-112-24-154-34z" fill="#a97242" />
    <path d="M394 476c60-80 110-118 142-118 34 0 70 24 72 64s-40 74-78 76c-42 2-94-18-136-22z" fill="#c78952" />
    <path d="M414 470c64-64 96-92 122-92 28 0 52 18 54 46 2 30-32 56-60 58-32 2-72-12-116-12z" fill="#dea162" />
    <path d="M436 466c52-42 76-58 94-58 20 0 36 12 38 30 0 20-22 36-42 38-24 2-54-8-90-10z" fill="#f3bb76" />
    <path d="M454 464c34-20 46-26 58-26 12 0 22 8 22 18 0 12-12 20-24 22-12 0-32-6-56-14z" fill="#ffd493" />
  </g>
  <g fill="#6f3100" font-family="'Aleo', 'Merriweather', serif" font-weight="700" text-anchor="middle">
    <text font-size="82" x="480" y="220">PICANTE DEL GRINGO</text>
    <text font-size="60" x="480" y="296">AHUMADO DULCE</text>
  </g>
  <g fill="#4a2905" font-family="'Aleo', 'Merriweather', serif" font-weight="400" text-anchor="middle">
    <text font-size="34" x="480" y="360">Endulzado con plátano maduro y panela</text>
    <text font-size="34" x="480" y="404">Sweetened with roasted plantain and panela</text>
  </g>
  <g transform="translate(708 156)">
    <path d="M0 0c32 36 58 52 82 44 12-4 22-14 24-26 4-20-10-40-34-46-18-4-36 0-52 10z" fill="#823016" />
    <path d="M10 6c26 24 44 32 58 26 10-4 16-14 14-22-2-12-12-20-24-22-14-4-28 0-42 8z" fill="#a94723" />
    <path d="M18 10c18 16 32 20 40 16 6-2 10-8 10-12-2-8-8-12-16-14-10-2-20 0-34 10z" fill="#d96c32" />
    <circle cx="6" cy="12" r="6" fill="#51200d" />
  </g>
  <g fill="#4a2905" font-family="'Aleo', 'Merriweather', serif" text-anchor="middle">
    <text font-size="30" x="480" y="760">Salsa artesanal de Costa Rica</text>
    <text font-size="28" x="480" y="804">Hecho a mano por Creaciones Colibrí</text>
  </g>
</svg>
